<svg width="101" height="106" viewBox="0 0 101 106" fill="none" xmlns="http://www.w3.org/2000/svg">
<path fill-rule="evenodd" clip-rule="evenodd" d="M19.6176 0H81.3824C88.2039 0 90.6775 0.710257 93.1713 2.04397C95.6651 3.37768 97.6223 5.33485 98.956 7.82868C100.29 10.3225 101 12.7961 101 19.6176V81.3824C101 88.2039 100.29 90.6775 98.956 93.1713C97.6223 95.6651 95.6651 97.6223 93.1713 98.956C91.5584 99.8186 89.9539 100.42 87.1761 100.738C86.9394 103.683 84.474 106 81.4676 106H74.8243C71.9076 106 69.5002 103.82 69.1429 101H32.8568C32.4995 103.82 30.0921 106 27.1754 106H20.532C17.5592 106 15.1154 103.735 14.8323 100.836C11.4156 100.556 9.6274 99.918 7.82868 98.956C5.33485 97.6223 3.37768 95.6651 2.04397 93.1713C0.710257 90.6775 0 88.2039 0 81.3824V19.6176C0 12.7961 0.710257 10.3225 2.04397 7.82868C3.37768 5.33485 5.33485 3.37768 7.82868 2.04397C10.3225 0.710257 12.7961 0 19.6176 0Z" fill="#3D404B" fill-opacity="0.4"/>
<path fill-rule="evenodd" clip-rule="evenodd" d="M24.5099 8H76.4901C82.231 8 84.3127 8.59774 86.4115 9.72017C88.5103 10.8426 90.1574 12.4897 91.2798 14.5885C92.4023 16.6873 93 18.769 93 24.5099V76.4901C93 82.231 92.4023 84.3127 91.2798 86.4115C90.1574 88.5103 88.5103 90.1574 86.4115 91.2798C84.3127 92.4023 82.231 93 76.4901 93H24.5099C18.769 93 16.6873 92.4023 14.5885 91.2798C12.4897 90.1574 10.8426 88.5103 9.72017 86.4115C8.59774 84.3127 8 82.231 8 76.4901V24.5099C8 18.769 8.59774 16.6873 9.72017 14.5885C10.8426 12.4897 12.4897 10.8426 14.5885 9.72017C16.6873 8.59774 18.769 8 24.5099 8Z" fill="white"/>
<rect x="15" y="15" width="71" height="71" rx="8.48457" fill="#3D404B" fill-opacity="0.4"/>
<circle cx="50.8541" cy="46.2452" r="5.17073" fill="white"/>
<path fill-rule="evenodd" clip-rule="evenodd" d="M48.2685 48.8296H53.4392L54.4521 58.9578C54.6019 60.4562 53.4252 61.7564 51.9193 61.7564H49.7884C48.2825 61.7564 47.1059 60.4562 47.2557 58.9578L48.2685 48.8296Z" fill="white"/>
<circle cx="30.1707" cy="46.2452" r="5.17073" fill="white"/>
<path fill-rule="evenodd" clip-rule="evenodd" d="M27.5854 48.8296H32.7561L33.769 58.9578C33.9188 60.4562 32.7421 61.7564 31.2362 61.7564H29.1053C27.5994 61.7564 26.4227 60.4562 26.5726 58.9578L27.5854 48.8296Z" fill="white"/>
<circle cx="71.536" cy="46.2452" r="5.17073" fill="white"/>
<path fill-rule="evenodd" clip-rule="evenodd" d="M68.9509 48.8296H74.1216L75.1344 58.9578C75.2843 60.4562 74.1076 61.7564 72.6017 61.7564H70.4708C68.9649 61.7564 67.7882 60.4562 67.9381 58.9578L68.9509 48.8296Z" fill="white"/>
</svg>
