<svg width="24" height="24" viewBox="0 0 24 24" fill="none" xmlns="http://www.w3.org/2000/svg">
<path fill-rule="evenodd" clip-rule="evenodd" d="M12 24C18.6274 24 24 18.6274 24 12C24 5.37258 18.6274 0 12 0C5.37258 0 0 5.37258 0 12C0 18.6274 5.37258 24 12 24Z" fill="#E5E7EB"/>
<path d="M15.8302 6.63786C16.2532 6.21479 16.9392 6.21479 17.3622 6.63786C17.7853 7.06093 17.7853 7.74686 17.3622 8.16992L8.16984 17.3623C7.74677 17.7854 7.06084 17.7854 6.63777 17.3623C6.2147 16.9392 6.2147 16.2533 6.63777 15.8302L15.8302 6.63786Z" fill="white"/>
<path d="M8.16984 6.63786C7.74677 6.21479 7.06084 6.21479 6.63778 6.63786C6.21471 7.06093 6.21471 7.74686 6.63778 8.16992L15.8302 17.3623C16.2532 17.7854 16.9392 17.7854 17.3622 17.3623C17.7853 16.9392 17.7853 16.2533 17.3622 15.8302L8.16984 6.63786Z" fill="white"/>
</svg>
