<svg width="24" height="24" viewBox="0 0 24 24" fill="none" xmlns="http://www.w3.org/2000/svg">
<g clip-path="url(#clip0)">
<path fill-rule="evenodd" clip-rule="evenodd" d="M12.7009 11.5442C11.3485 10.1025 9.07125 10.0662 7.67346 11.464L5.93303 13.2044C4.5662 14.5712 4.5662 16.7873 5.93303 18.1542L6.60418 18.8253C7.97102 20.1921 10.1871 20.1921 11.5539 18.8253L13.3588 17.0204C13.7493 16.6299 14.3825 16.6299 14.773 17.0204C15.1635 17.411 15.1635 18.0441 14.773 18.4347L12.9681 20.2395C10.8203 22.3874 7.33785 22.3874 5.18997 20.2395L4.51882 19.5684C2.37094 17.4205 2.37094 13.9381 4.51882 11.7902L6.25925 10.0498C8.45578 7.85324 12.0343 7.91037 14.1596 10.1759L15.2289 11.3158C15.6068 11.7186 15.5866 12.3514 15.1838 12.7293C14.781 13.1072 14.1482 13.0869 13.7703 12.6842L12.7009 11.5442Z" fill="#3D404B"/>
<path fill-rule="evenodd" clip-rule="evenodd" d="M13.015 13.1567C14.3663 14.6038 16.648 14.6428 18.048 13.2428L19.7809 11.5099C21.1477 10.143 21.1477 7.92697 19.7809 6.56013L19.1097 5.88898C17.7429 4.52215 15.5268 4.52215 14.16 5.88898L12.3551 7.69385C11.9646 8.08437 11.3314 8.08437 10.9409 7.69385C10.5504 7.30332 10.5504 6.67016 10.9409 6.27963L12.7458 4.47477C14.8937 2.32689 18.3761 2.32689 20.5239 4.47477L21.1951 5.14592C23.343 7.2938 23.343 10.7762 21.1951 12.9241L19.4622 14.657C17.2622 16.857 13.6768 16.7957 11.5533 14.5217L10.7696 13.6825C10.3926 13.2788 10.4143 12.646 10.8179 12.2691C11.2216 11.8921 11.8544 11.9138 12.2313 12.3174L13.015 13.1567Z" fill="#3D404B"/>
</g>
<defs>
<clipPath id="clip0">
<rect width="24" height="24" fill="white"/>
</clipPath>
</defs>
</svg>
