<svg width="24" height="24" viewBox="0 0 24 24" fill="none" xmlns="http://www.w3.org/2000/svg">
<path d="M9.99993 5.28988L10.2852 6.24833L10.9999 6.03561V5.28988H9.99993ZM7.19038 6.91389L6.69038 7.77991L7.336 8.15266L7.87758 7.64036L7.19038 6.91389ZM6.93767 6.76798L6.43767 7.63401L6.43767 7.63401L6.93767 6.76798ZM5.57164 7.13401L6.43767 7.63401H6.43767L5.57164 7.13401ZM4.57164 8.86606L5.43767 9.36606L4.57164 8.86606ZM4.93767 10.2321L5.43767 9.36606H5.43767L4.93767 10.2321ZM5.18899 10.3772L6.16196 10.6081L6.33396 9.88354L5.689 9.51117L5.18899 10.3772ZM5.189 13.6228L5.689 14.4889L6.33397 14.1165L6.16196 13.3919L5.189 13.6228ZM4.93773 13.7679L4.43773 12.9019H4.43773L4.93773 13.7679ZM4.5717 15.1339L5.43773 14.6339H5.43773L4.5717 15.1339ZM5.5717 16.866L4.70568 17.366H4.70568L5.5717 16.866ZM6.93773 17.232L6.43773 16.366H6.43773L6.93773 17.232ZM7.1904 17.0861L7.8776 16.3597L7.33602 15.8474L6.69041 16.2201L7.1904 17.0861ZM9.99993 18.7101H10.9999V17.9644L10.2852 17.7517L9.99993 18.7101ZM13.9999 18.7101L13.7147 17.7517L12.9999 17.9644V18.7101H13.9999ZM16.8094 17.0862L17.3094 16.2202L16.6638 15.8474L16.1222 16.3597L16.8094 17.0862ZM17.062 17.2321L16.562 18.0981L16.562 18.0981L17.062 17.2321ZM18.428 16.8661L17.562 16.3661L18.428 16.8661ZM19.428 15.134L18.562 14.634V14.634L19.428 15.134ZM19.062 13.768L19.562 12.902L19.062 13.768ZM18.8108 13.623L17.8379 13.392L17.6658 14.1166L18.3108 14.489L18.8108 13.623ZM18.8108 10.3771L18.3108 9.51105L17.6658 9.88343L17.8379 10.6081L18.8108 10.3771ZM19.0621 10.232L19.5621 11.098V11.098L19.0621 10.232ZM19.4281 8.86599L18.5621 9.36599V9.36599L19.4281 8.86599ZM18.4281 7.13394L17.5621 7.63394V7.63394L18.4281 7.13394ZM17.0621 6.76791L17.5621 7.63394L17.0621 6.76791ZM16.8094 6.91381L16.1222 7.64029L16.6638 8.15258L17.3094 7.77983L16.8094 6.91381ZM13.9999 5.28988H12.9999V6.03561L13.7147 6.24833L13.9999 5.28988ZM10.9999 5V3C9.89536 3 8.99993 3.89543 8.99993 5H10.9999ZM10.9999 5.28988V5H8.99993V5.28988H10.9999ZM7.87758 7.64036C8.55238 7.00203 9.37403 6.5195 10.2852 6.24833L9.71468 4.33143C8.49632 4.69402 7.40082 5.33829 6.50318 6.18742L7.87758 7.64036ZM6.43767 7.63401L6.69038 7.77991L7.69038 6.04786L7.43767 5.90196L6.43767 7.63401ZM6.43767 7.63401H6.43767L7.43767 5.90196C6.48108 5.34967 5.2579 5.67742 4.70562 6.63401L6.43767 7.63401ZM5.43767 9.36606L6.43767 7.63401L4.70562 6.63401L3.70562 8.36606L5.43767 9.36606ZM5.43767 9.36606L5.43767 9.36606L3.70562 8.36606C3.15333 9.32265 3.48108 10.5458 4.43767 11.0981L5.43767 9.36606ZM5.689 9.51117L5.43767 9.36606L4.43767 11.0981L4.68899 11.2432L5.689 9.51117ZM5.99993 12C5.99993 11.5197 6.05616 11.0539 6.16196 10.6081L4.21603 10.1462C4.07457 10.7422 3.99993 11.363 3.99993 12H5.99993ZM6.16196 13.3919C6.05616 12.9462 5.99993 12.4803 5.99993 12H3.99993C3.99993 12.637 4.07457 13.2579 4.21604 13.8538L6.16196 13.3919ZM4.689 12.7568L4.43773 12.9019L5.43773 14.6339L5.689 14.4889L4.689 12.7568ZM4.43773 12.9019C3.48114 13.4542 3.15339 14.6774 3.70568 15.6339L5.43773 14.6339L5.43773 14.6339L4.43773 12.9019ZM3.70568 15.6339L4.70568 17.366L6.43773 16.366L5.43773 14.6339L3.70568 15.6339ZM4.70568 17.366C5.25796 18.3226 6.48114 18.6503 7.43773 18.098L6.43773 16.366H6.43773L4.70568 17.366ZM7.43773 18.098L7.6904 17.9522L6.69041 16.2201L6.43773 16.366L7.43773 18.098ZM10.2852 17.7517C9.37404 17.4805 8.5524 16.998 7.8776 16.3597L6.50321 17.8126C7.40085 18.6617 8.49634 19.306 9.71468 19.6686L10.2852 17.7517ZM10.9999 19V18.7101H8.99993V19H10.9999ZM10.9999 19H8.99993C8.99993 20.1046 9.89536 21 10.9999 21V19ZM12.9999 19H10.9999V21H12.9999V19ZM12.9999 19V21C14.1045 21 14.9999 20.1046 14.9999 19H12.9999ZM12.9999 18.7101V19H14.9999V18.7101H12.9999ZM16.1222 16.3597C15.4474 16.998 14.6258 17.4805 13.7147 17.7517L14.2852 19.6686C15.5035 19.306 16.5989 18.6618 17.4965 17.8127L16.1222 16.3597ZM17.562 16.3661L17.3094 16.2202L16.3094 17.9522L16.562 18.0981L17.562 16.3661ZM17.562 16.3661V16.3661L16.562 18.0981C17.5186 18.6504 18.7418 18.3226 19.2941 17.3661L17.562 16.3661ZM18.562 14.634L17.562 16.3661L19.2941 17.3661L20.2941 15.634L18.562 14.634ZM18.562 14.634H18.562L20.2941 15.634C20.8464 14.6774 20.5186 13.4542 19.562 12.902L18.562 14.634ZM18.3108 14.489L18.562 14.634L19.562 12.902L19.3108 12.7569L18.3108 14.489ZM17.9999 12C17.9999 12.4803 17.9437 12.9462 17.8379 13.392L19.7838 13.8539C19.9253 13.2579 19.9999 12.637 19.9999 12H17.9999ZM17.8379 10.6081C17.9437 11.0538 17.9999 11.5197 17.9999 12H19.9999C19.9999 11.363 19.9253 10.7421 19.7838 10.1461L17.8379 10.6081ZM19.3108 11.2431L19.5621 11.098L18.5621 9.36599L18.3108 9.51105L19.3108 11.2431ZM19.5621 11.098C20.5187 10.5458 20.8464 9.32258 20.2941 8.36599L18.5621 9.36599L18.5621 9.36599L19.5621 11.098ZM20.2941 8.36599L19.2941 6.63394L17.5621 7.63394L18.5621 9.36599L20.2941 8.36599ZM19.2941 6.63394C18.7418 5.67735 17.5187 5.3496 16.5621 5.90189L17.5621 7.63394V7.63394L19.2941 6.63394ZM16.5621 5.90189L16.3094 6.04778L17.3094 7.77983L17.5621 7.63394L16.5621 5.90189ZM13.7147 6.24833C14.6258 6.51949 15.4474 7.00199 16.1222 7.64029L17.4966 6.18733C16.5989 5.33825 15.5035 4.69401 14.2852 4.33143L13.7147 6.24833ZM12.9999 5V5.28988H14.9999V5H12.9999ZM12.9999 5H14.9999C14.9999 3.89543 14.1045 3 12.9999 3V5ZM10.9999 5H12.9999V3H10.9999V5Z" fill="#B8BDC7"/>
<circle cx="12" cy="12" r="3" stroke="#B8BDC7" stroke-width="2"/>
</svg>
