<svg width="24" height="24" viewBox="0 0 24 24" fill="none" xmlns="http://www.w3.org/2000/svg">
<path fill-rule="evenodd" clip-rule="evenodd" d="M3 16C3 18.7614 5.23858 21 8 21H16C18.7614 21 21 18.7614 21 16V8C21 5.23858 18.7614 3 16 3C15.4477 3 15 3.44772 15 4C15 4.55228 15.4477 5 16 5C17.6569 5 19 6.34315 19 8V16C19 17.6569 17.6569 19 16 19H8C6.34315 19 5 17.6569 5 16V8C5 6.34315 6.34315 5 8 5C8.55228 5 9 4.55228 9 4C9 3.44772 8.55228 3 8 3C5.23858 3 3 5.23858 3 8V16Z" fill="#3D404B"/>
<path d="M15.5355 12.5355C15.9261 12.145 15.9261 11.5118 15.5355 11.1213C15.145 10.7308 14.5118 10.7308 14.1213 11.1213L15.5355 12.5355ZM12 14.6569L11.2929 15.364C11.6834 15.7545 12.3166 15.7545 12.7071 15.364L12 14.6569ZM9.87868 11.1213C9.48816 10.7308 8.85499 10.7308 8.46447 11.1213C8.07394 11.5118 8.07394 12.145 8.46447 12.5355L9.87868 11.1213ZM14.1213 11.1213L11.2929 13.9497L12.7071 15.364L15.5355 12.5355L14.1213 11.1213ZM12.7071 13.9497L9.87868 11.1213L8.46447 12.5355L11.2929 15.364L12.7071 13.9497Z" fill="#3D404B"/>
<rect x="11" y="15" width="12" height="2" rx="1" transform="rotate(-90 11 15)" fill="#3D404B"/>
</svg>
